<?xml version="1.0" standalone="no"?><!-- Generator: Gravit.io --><svg xmlns="http://www.w3.org/2000/svg" xmlns:xlink="http://www.w3.org/1999/xlink" style="isolation:isolate" viewBox="0 0 690.994 699.871" width="690.994" height="699.871"><defs><clipPath id="_clipPath_aVdjSJWv2UNNY0X5ldq77RNNAgPM4giv"><rect width="690.994" height="699.871"/></clipPath></defs><g clip-path="url(#_clipPath_aVdjSJWv2UNNY0X5ldq77RNNAgPM4giv)"><g><path d=" M 308 156 C 357 89 420 50 492 55 C 570 69 616 129 620 214 C 615.667 270 581.343 323.343 517 374 C 426.703 437.863 361.713 490.207 322 531 C 308.667 546 300.677 563.01 298 582 C 297 604.667 300.677 623.343 309 638 C 306.667 616.667 309.01 598.01 316 582 C 320.667 569.667 331.677 555.343 347 539 C 396.452 502.172 462.472 458.192 547 407 C 643.514 351.086 691.191 277.096 690 185 C 693 78 602 10 497 6 C 424 13 359 62 308 156 Z " fill="rgb(0,0,0)" vector-effect="non-scaling-stroke" stroke-width="1" stroke="rgb(0,0,0)" stroke-linejoin="miter" stroke-linecap="square" stroke-miterlimit="3"/><path d=" M 337 117 C 252.961 34.646 172.638 25.989 96 91 C 39.333 163.667 42.677 240.343 106 321 C 146.015 370.704 242 442.5 305 484 C 358 525.5 381.706 572.451 385 628 C 385 656.667 377.01 680.01 361 698 C 369.333 671 373.01 647.343 372 627 C 364.506 575.761 336.516 536.104 288 506 C 269 493.5 113 418 59 353 C 17.312 305.829 -2.345 252.506 0 193 C 3.333 125.333 22.677 77.01 58 48 C 94 18.667 135.343 2.677 182 0 C 255.73 3.024 307.406 42.034 337 117 Z " fill="rgb(0,0,0)" vector-effect="non-scaling-stroke" stroke-width="1" stroke="rgb(0,0,0)" stroke-linejoin="miter" stroke-linecap="square" stroke-miterlimit="3"/></g></g></svg>