<?xml version="1.0" encoding="iso-8859-1"?>
<!-- Generator: Adobe Illustrator 19.0.0, SVG Export Plug-In . SVG Version: 6.00 Build 0)  -->
<svg version="1.1" id="Layer_1" xmlns="http://www.w3.org/2000/svg" xmlns:xlink="http://www.w3.org/1999/xlink" x="0px" y="0px"
	 viewBox="0 0 512 512" style="enable-background:new 0 0 512 512;" xml:space="preserve">
<g>
	<g>
		<path d="M467.204,67.921C412.786,20.394,329.86,25.984,282.31,80.365l-26.311,29.66l-26.311-29.66
			C182.138,25.984,99.212,20.396,44.795,67.921c-54.437,47.543-60.045,130.51-12.503,184.946l185.641,206.535
			c9.692,10.783,23.568,16.968,38.067,16.968c14.499,0,28.375-6.185,38.067-16.968L479.546,253.05l0.161-0.182
			C527.251,198.431,521.641,115.464,467.204,67.921z M454.083,230.333L268.689,436.591c-3.278,3.648-7.785,5.656-12.689,5.656
			c-4.905,0-9.41-2.009-12.689-5.656L57.917,230.333c-35.082-40.266-30.911-101.571,9.324-136.711
			c19.41-16.951,44.379-25.318,70.306-23.57c25.927,1.753,49.541,13.408,66.492,32.819L256,161.443l51.873-58.474l0.088-0.099
			c16.952-19.41,40.567-31.066,66.492-32.819c25.929-1.753,50.895,6.619,70.306,23.57
			C484.994,128.763,489.165,190.067,454.083,230.333z"/>
	</g>
</g>
<g>
</g>
<g>
</g>
<g>
</g>
<g>
</g>
<g>
</g>
<g>
</g>
<g>
</g>
<g>
</g>
<g>
</g>
<g>
</g>
<g>
</g>
<g>
</g>
<g>
</g>
<g>
</g>
<g>
</g>
</svg>
